<?xml version="1.0" encoding="UTF-8"?>
<svg version="1.1" xmlns="http://www.w3.org/2000/svg" width="225" height="225">
<path d="M0 0 C74.25 0 148.5 0 225 0 C225 74.25 225 148.5 225 225 C150.75 225 76.5 225 0 225 C0 150.75 0 76.5 0 0 Z " fill="#FEFEFE" transform="translate(0,0)"/>
<path d="M0 0 C1.32 0 2.64 0 4 0 C6.81005081 5.83845016 5.37651698 9.72667295 3.5 15.5625 C2.93437455 17.42171649 2.36928722 19.28109676 1.8046875 21.140625 C1.50788086 22.09775391 1.21107422 23.05488281 0.90527344 24.04101562 C-0.59471899 28.9439035 -1.97962479 33.87903383 -3.375 38.8125 C-3.88227747 40.58999653 -4.39003997 42.36735476 -4.8984375 44.14453125 C-5.26195312 45.41683594 -5.62546875 46.68914062 -6 48 C-3.03 47.34 -0.06 46.68 3 46 C3.185625 44.4840625 3.185625 44.4840625 3.375 42.9375 C4.27249539 37.28327904 5.14103607 32.38518628 9 28 C10.65 28.33 12.3 28.66 14 29 C13.34 33.62 12.68 38.24 12 43 C13.27746094 42.58105469 14.55492188 42.16210938 15.87109375 41.73046875 C23.80977135 39.35932027 31.92717217 37.83837206 40.0625 36.3125 C41.31716064 36.07713028 41.31716064 36.07713028 42.59716797 35.83700562 C53.24155334 33.87474582 63.64948154 32.33484149 74.5 32.3125 C75.49394775 32.30581299 76.48789551 32.29912598 77.51196289 32.29223633 C83.25751322 32.43963606 86.56401996 33.29595666 91 37 C90.67 38.65 90.34 40.3 90 42 C89.1656543 42.10022461 88.33130859 42.20044922 87.47167969 42.30371094 C71.17511643 44.28081806 55.03271325 46.40853476 39 50 C36.61719566 50.52868259 34.23438252 51.05732555 31.8515625 51.5859375 C28.15182026 52.4075135 24.4530082 53.23232446 20.75683594 54.06982422 C19.64856445 54.32006348 18.54029297 54.57030273 17.3984375 54.828125 C15.90836182 55.1669873 15.90836182 55.1669873 14.38818359 55.51269531 C12 56 12 56 10 56 C10 62.27 10 68.54 10 75 C8.68 75.33 7.36 75.66 6 76 C3.1279396 70.2558792 2.43904697 65.41008571 2 59 C-1.63 59.66 -5.26 60.32 -9 61 C-9.04898438 61.83402344 -9.09796875 62.66804688 -9.1484375 63.52734375 C-9.22320312 64.65269531 -9.29796875 65.77804688 -9.375 66.9375 C-9.44460937 68.03964844 -9.51421875 69.14179687 -9.5859375 70.27734375 C-9.98301915 73.84733252 -10.66937574 77.19117866 -11.48291016 80.68139648 C-12.32304586 84.44852055 -12.91174351 88.24922319 -13.5 92.0625 C-13.69335938 93.29685791 -13.69335938 93.29685791 -13.890625 94.55615234 C-14.87891905 100.9664746 -15.67641446 107.38644072 -16.4375 113.82763672 C-16.8584499 117.13907529 -17.43514848 120.4013185 -18.07849121 123.6776886 C-20.31698536 135.22821687 -20.98337062 146.81494069 -21.65673828 158.54223633 C-21.81179933 161.18135647 -21.98319141 163.81903956 -22.15625 166.45703125 C-22.21733948 167.65849541 -22.21733948 167.65849541 -22.27966309 168.88423157 C-22.56142589 173.07341649 -22.83636818 176.06076309 -26 179 C-28.5625 179.4375 -28.5625 179.4375 -31 179 C-40.68686617 164.46970074 -33.22998637 135.57854745 -31.41455078 118.828125 C-31.15150984 116.39910143 -30.89400973 113.96946631 -30.64404297 111.5390625 C-29.02471964 95.81253377 -26.34814693 80.4491646 -23 65 C-27.52128331 66.54647491 -32.04193646 68.09477309 -36.56201172 69.64477539 C-38.10025054 70.17197208 -39.63866132 70.69866731 -41.17724609 71.22485352 C-43.38684606 71.98061933 -45.59582433 72.73817764 -47.8046875 73.49609375 C-48.49432587 73.73154404 -49.18396423 73.96699432 -49.89450073 74.20957947 C-53.51161323 75.44705168 -53.51161323 75.44705168 -57 77 C-58.99960012 77.039992 -61.00047242 77.04346799 -63 77 C-63.33 74.69 -63.66 72.38 -64 70 C-59.02296355 66.19641117 -53.92345251 63.37466419 -48.125 61 C-47.50181885 60.74428223 -46.8786377 60.48856445 -46.23657227 60.22509766 C-42.5202079 58.76948709 -38.89710764 57.71874732 -34.984375 56.921875 C-26.37990165 55.37843634 -26.37990165 55.37843634 -19.77197266 50.24951172 C-17.86341267 45.82381919 -17.17124621 41.15997535 -16.44238281 36.42236328 C-15.72803206 32.51078042 -14.42548077 28.85149698 -13.0625 25.125 C-12.81153564 24.42431396 -12.56057129 23.72362793 -12.30200195 23.00170898 C-9.33317287 14.89734989 -6.02966022 6.32545487 0 0 Z " fill="#2D2D2D" transform="translate(106,31)"/>
</svg>
